<!--?xml version="1.0" encoding="utf-8"?-->
<!-- Generator: Adobe Illustrator 18.1.1, SVG Export Plug-In . SVG Version: 6.00 Build 0)  -->

<svg version="1.1" id="_x32_" xmlns="http://www.w3.org/2000/svg" xmlns:xlink="http://www.w3.org/1999/xlink" x="0px" y="0px" viewBox="0 0 512 512" style="width: 256px; height: 256px; opacity: 1;" xml:space="preserve">
<style type="text/css">
	.st0{fill:#4B4B4B;}
</style>
<g>
	<path class="st0" d="M275.37,309.707l-0.833-0.274c-1.967-0.917-10.852-2.292-16.142,0.55c-1.097,0.443-1.292,1.36,0.474,2.926
		c5.244,4.622,9.107,8.671,10.852,12.934c1.314,3.217,3.11,2.384,3.56,1.682c0.477-0.741,1.447-3.179,2.234-5.249
		c2.682,1.543,4.997,3.652,6.792,6.257c3.194,4.622,4.401,10.237,3.392,15.784c-1.02,5.539-4.126,10.359-8.759,13.553
		c-4.626,3.201-10.237,4.408-15.784,3.4c-5.546-1.016-10.359-4.134-13.561-8.756l-28.317-40.988c0.756-1.322,1.299-2.75,1.562-4.225
		c0.615-3.323-0.061-6.937-2.144-9.939c-2.078-3.018-5.214-4.928-8.541-5.531c-3.33-0.604-6.945,0.069-9.946,2.139
		c-3.01,2.086-4.917,5.226-5.524,8.557c-0.619,3.33,0.057,6.937,2.143,9.947c2.071,3.01,5.21,4.912,8.541,5.515
		c1.475,0.276,3.006,0.276,4.508,0.046l28.317,40.98c3.197,4.622,4.4,10.222,3.392,15.776c-1.016,5.539-4.129,10.367-8.755,13.561
		c-4.634,3.2-10.238,4.4-15.784,3.399c-5.55-1.016-10.363-4.141-13.564-8.755c-1.792-2.613-2.949-5.516-3.446-8.572
		c2.22,0,4.836-0.046,5.696-0.237c0.825-0.168,2.231-1.55-0.305-3.919c-3.374-3.148-5.792-8.182-8.263-14.73
		c-0.836-2.2-1.765-2.346-2.571-1.474c-4.526,3.942-6.387,12.743-6.226,14.905l-0.034,0.878c-0.256,7.036,1.734,13.828,5.749,19.635
		c4.939,7.158,12.364,11.948,20.906,13.508c8.541,1.573,17.178-0.29,24.337-5.242h0.007c7.147-4.943,11.942-12.361,13.5-20.91
		c0.363-1.978,0.523-3.965,0.519-5.944c1.85,0.696,3.767,1.253,5.749,1.612c8.538,1.574,17.178-0.283,24.33-5.226h0.007
		c7.155-4.95,11.949-12.376,13.504-20.918c1.57-8.534-0.29-17.174-5.237-24.333C287.694,316.217,282.044,311.953,275.37,309.707z
		 M209.828,307.905c-0.841,0.565-1.788,0.733-2.716,0.58c-0.929-0.184-1.753-0.673-2.334-1.513c-0.573-0.832-0.745-1.78-0.581-2.712
		c0.176-0.924,0.669-1.749,1.502-2.33c0.844-0.573,1.788-0.749,2.72-0.581c0.921,0.168,1.745,0.672,2.33,1.498
		c0.574,0.84,0.745,1.788,0.58,2.719C211.154,306.491,210.661,307.316,209.828,307.905z" style="fill: rgb(75, 75, 75);"></path>
	<path class="st0" d="M506.224,254.127c-4.015-5.821-9.661-10.076-16.338-12.33l-0.833-0.283
		c-1.966-0.909-10.848-2.276-16.142,0.558c-1.097,0.444-1.295,1.368,0.478,2.927c5.244,4.629,9.103,8.67,10.848,12.934
		c1.31,3.216,3.11,2.391,3.564,1.68c0.473-0.741,1.444-3.17,2.23-5.248c2.682,1.544,4.993,3.652,6.792,6.257
		c3.198,4.622,4.401,10.23,3.392,15.776c-1.02,5.547-4.122,10.36-8.759,13.568c-4.63,3.202-10.238,4.401-15.78,3.392
		c-5.55-1.016-10.363-4.133-13.564-8.755l-28.321-40.98c0.764-1.322,1.298-2.751,1.566-4.232c0.615-3.331-0.057-6.93-2.14-9.947
		c-2.078-3.01-5.218-4.913-8.548-5.516c-3.327-0.611-6.941,0.061-9.947,2.139c-3.006,2.078-4.912,5.218-5.52,8.549
		c-0.615,3.323,0.057,6.937,2.14,9.947c2.078,3.01,5.214,4.912,8.544,5.516c1.475,0.275,3.006,0.275,4.508,0.038l28.317,40.98
		c3.197,4.63,4.404,10.23,3.396,15.784c-1.02,5.539-4.133,10.36-8.759,13.568c-4.634,3.194-10.242,4.393-15.784,3.392
		c-5.547-1.024-10.364-4.133-13.565-8.756c-1.792-2.605-2.945-5.515-3.445-8.572c2.219,0,4.836-0.046,5.699-0.23
		c0.821-0.175,2.227-1.558-0.309-3.926c-3.373-3.14-5.788-8.182-8.263-14.722c-0.836-2.208-1.761-2.345-2.571-1.49
		c-4.522,3.958-6.383,12.751-6.226,14.914l-0.034,0.878c-0.256,7.036,1.734,13.82,5.753,19.634
		c4.939,7.159,12.36,11.949,20.902,13.508c8.541,1.566,17.182-0.29,24.341-5.233l0.007-0.008
		c7.148-4.944,11.942-12.362,13.496-20.911c0.363-1.978,0.523-3.972,0.519-5.936c1.854,0.688,3.767,1.245,5.75,1.612
		c8.541,1.558,17.178-0.29,24.329-5.234l0.004-0.007c7.158-4.944,11.952-12.37,13.51-20.911
		C513.023,269.919,511.166,261.271,506.224,254.127z M424.344,239.986c-0.841,0.574-1.788,0.742-2.716,0.58
		c-0.925-0.167-1.753-0.672-2.33-1.504c-0.581-0.833-0.749-1.78-0.584-2.712c0.176-0.925,0.673-1.742,1.505-2.331
		c0.844-0.572,1.784-0.748,2.716-0.588c0.924,0.184,1.749,0.68,2.33,1.505c0.574,0.848,0.746,1.795,0.584,2.72
		C425.669,238.58,425.176,239.405,424.344,239.986z" style="fill: rgb(75, 75, 75);"></path>
	<path class="st0" d="M403.693,198.525c-55.106-56.451-156.49-100.128-249.899-88.034c-75.505,9.779-111.45,58.972-120.007,86.07
		c-0.08-0.084-0.148-0.175-0.233-0.26c-3.541-3.544-8.487-5.76-13.9-5.76s-10.352,2.216-13.893,5.76
		c-3.553,3.546-5.764,8.488-5.76,13.897c-0.004,5.417,2.208,10.36,5.76,13.905c3.541,3.552,8.48,5.76,13.893,5.752
		c5.413,0.008,10.359-2.2,13.9-5.752c0.848-0.848,1.612-1.781,2.296-2.774c1.826,4.026,4.007,7.869,6.497,11.528l-30.872,36.014
		c-3.805,4.439-3.29,11.116,1.145,14.92c4.439,3.812,11.12,3.293,14.925-1.145l28.901-33.707
		c32.553,29.62,88.03,42.47,130.274,40.98c34.25-1.207,84.004-24.188,112.229-37.634c28.222-13.438,93.993-15.455,100.04-16.8
		C405.038,234.142,411.088,205.248,403.693,198.525z M27.136,217.685c-1.929,1.925-4.542,3.094-7.483,3.102
		c-2.938-0.008-5.551-1.177-7.484-3.102c-1.918-1.932-3.094-4.545-3.098-7.487c0.004-2.934,1.18-5.546,3.098-7.479
		c1.933-1.925,4.546-3.102,7.484-3.102c2.941,0,5.554,1.177,7.483,3.102c1.925,1.932,3.098,4.545,3.102,7.479
		C30.234,213.14,29.062,215.753,27.136,217.685z M85.68,217.609c-12.53,0-22.686-10.161-22.686-22.682
		c0-12.53,10.157-22.69,22.686-22.69c12.526,0,22.683,10.161,22.683,22.69C108.363,207.448,98.206,217.609,85.68,217.609z" style="fill: rgb(75, 75, 75);"></path>
	<path class="st0" d="M85.023,185.507c-4.904,0-8.881,3.98-8.881,8.885s3.977,8.878,8.881,8.878c4.902,0,8.878-3.973,8.878-8.878
		S89.925,185.507,85.023,185.507z" style="fill: rgb(75, 75, 75);"></path>
</g>
</svg>
